<svg width="92.845mm" height="74.772mm" version="1.1" viewBox="0 0 92.845 74.772" xmlns="http://www.w3.org/2000/svg" xmlns:cc="http://creativecommons.org/ns#" xmlns:dc="http://purl.org/dc/elements/1.1/" xmlns:rdf="http://www.w3.org/1999/02/22-rdf-syntax-ns#" xmlns:xlink="http://www.w3.org/1999/xlink">
 <metadata>
  <rdf:RDF>
   <cc:Work rdf:about="">
    <dc:format>image/svg+xml</dc:format>
    <dc:type rdf:resource="http://purl.org/dc/dcmitype/StillImage"/>
    <dc:title/>
   </cc:Work>
  </rdf:RDF>
 </metadata>
 <g transform="translate(189.8 -278.2)" display="none">
  <g display="inline">
   <g fill="#b78d57">
    <path d="m261.5 173.73s-0.75595-1.7009 0.0945-3.3073-1.0394-3.6853 0.18899-6.3311c1.2284-2.6458 4.1577-6.8036 5.6696-7.7485 1.5119-0.94494-0.56696-3.3073-0.56696-3.3073s0.0945-3.2128 1.1339-4.2522 4.7247-2.3624 5.7641-3.4963 4.2522-1.2284 6.6146-0.94494c2.3624 0.28348 7.5595 1.3229 7.5595 1.3229s-2.6458-8.6934-3.8743-9.8274-6.0476-6.4256-5.8586-9.0714c0.18899-2.6458 2.3624 3.3073 3.9688 4.7247s4.6302 6.2366 5.1972 5.8586c0.56697-0.37798 0.56697-8.032 0.85045-9.5439s-1.0394-4.5357 0-4.2522c1.0394 0.28348 1.6064 4.1577 1.5119 5.6696s0.56697 4.7247 1.8899 4.6302c1.3229-0.0945 3.2128-7.843 3.2128-7.843s1.2284 3.1183 0.75595 4.8192c-0.47247 1.7009-2.9293 8.6934-1.8899 9.1659 1.0394 0.47247 10.3-10.867 10.394-16.725 0.0945-5.8586 1.3229 2.9293 1.3229 2.9293s-3.7798 8.9769-4.5357 10.205 3.9688-2.0789 4.5357-4.1577c0.56697-2.0789 3.8743-8.1265 4.8192-10.205s3.1183-8.032 3.8743-8.032c0.75595 0-0.18899 6.6146-1.1339 7.5595s-6.8981 10.016-5.4806 9.7329c1.4174-0.28348 6.5201-9.5439 7.654-10.111 1.1339-0.56696-4.7247 8.599-3.1183 8.5045s7.843-3.4963 9.2604-9.4494 3.2128-0.66145 1.0394 2.4568-4.6302 5.2917-3.7798 5.2917 3.4018-2.7403 3.4018-2.7403l1.3229-0.85045s-3.8742 9.2604-11.623 13.513c-7.7485 4.2522-3.3073 3.8743-7.5595 5.3862s-13.503 4.1812-17.481 5.9531-6.8036-0.94494-9.5439 1.0394c-2.7403 1.9844-3.0238 3.4963-2.8348 6.1421 0.18899 2.6458 0.47247 6.6146 0.0945 7.654s-0.28348-1.5119-2.7403-2.4568c-2.4568-0.94494-5.5752 0.18898-6.0476 1.7009-0.47247 1.5119-0.28348 5.6696 0.18899 6.8981 0.47247 1.2284 1.9844 4.2522 3.0238 2.6458s1.4174-4.7247 0.94495-5.4807c-0.47247-0.75595 1.3229 0.28349 1.3229 0.28349s0.28348 3.3073 0 4.4412-2.7403 3.6853-4.4412 3.1183c-1.7009-0.56696-3.7798 0.37798-5.1027-1.5119z" display="inline"/>
    <path d="m285.6 153.89 1.0394-2.7403s11.451 9.0717 9.7329 17.103c-1.7182 8.0317-8.3692 14.541-10.583 25.041-5.8905-1.0941-15.298-10.291-15.308-14.269-0.01-3.9779 2.3624-5.5752 2.3624-5.5752s-1.4174 4.4412 1.1339 7.9375 8.6934 7.9375 8.6934 7.9375c-2.9551-9.392-0.15296-15.584 4.5357-20.127 5.2365-5.8551-1.6064-15.308-1.6064-15.308z" display="inline"/>
    <path d="m266.56 149.22s-0.93544 2.1382-1.0023 3.0068c-0.0668 0.86862-0.0668 0.33408-0.0668 0.33408s-3.5413 0-5.9467 1.0023-4.6772 1.0023-7.8844 0.8018c-3.2072-0.20045-8.0181-0.53453-9.7553-4.4768s-2.3386-4.41-2.3386-4.41l2.205 0.80181s-9.4212-6.214-9.6885-8.6194c-0.26727-2.4054-0.13363-6.5481-0.13363-6.5481s2.8732 7.4836 3.8754 8.0849c1.0023 0.60135-1.5368-3.675-1.47-6.0804s2.0713-7.8176 2.5391-7.8176c0.46772 0-1.1359 9.0872 1.47 12.495 2.6059 3.4077 8.0849 9.154 9.7553 10.156 1.6704 1.0023 2.0713 1.2027 2.0713 1.2027s-0.46773-4.0759-0.0668-5.8799c0.4009-1.8041 2.94-7.7508 3.3409-7.1495 0.4009 0.60136-1.8041 6.5481-1.3364 8.8199s0.93544 7.5504 4.0759 6.7486 8.0181-2.4054 10.357-2.4722z" display="inline"/>
    <path d="m271.3 145.55s-4.6104-6.4813-8.0849-6.8822c-3.4745-0.40091-5.479 0.53454-5.479 0.53454s0.80181-0.53454 3.1404 0.13363c2.3386 0.66818 3.1404 0.33409 4.6104 1.5368 1.47 1.2027 2.0713 6.0136 2.0713 6.0136s1.6036-1.5368 3.7418-1.3364z" display="inline"/>
    <path d="m278.04 165.7-3.3073 2.6458v0.75596s-2.0789 1.8899-1.5119 2.7403c0.56696 0.85045 4.9137-1.2284 7.087-0.94494s7.276-4.1577 7.276-8.5045-1.9844-8.5045-1.9844-8.5045 1.9844 10.016-7.5595 11.812z" display="inline"/>
    <path d="m279.15 154.9s2.205 0.53454 2.2718-1.0023c0.0668-1.5368-2.5725-0.80181-2.2718 1.0023z" display="inline"/>
   </g>
  </g>
 </g>
 <g transform="matrix(1.0001 0 0 1.0009 239.78 -72.523)" fill="#b78d57">
  <g transform="translate(-.17981 -.12313)">
   <g transform="translate(-252.82,-138.79)">
    <path transform="translate(-42.229,-3.5455)" d="m91.796 245.33c-0.9107 0.76346-1.0589 2.5985-0.78405 4.2359-1.3118-1.3483-2.7521-0.88379-6.2381 0.48112-10.324 2.9581-13.416-4.4292-16.138-5.4306-1.8442-0.10545-6.2666 0.58294-6.2777-0.82735-0.01117-1.4103 2.7752-0.76356 4.3912-1.4022-4.9189-2.1816-12.028-11.601-11.205-12.591 0.8071-0.97073 4.13 4.2785 5.9492 5.3198-1.482-3.8365-1.1925-13.877 0.94339-13.332s-1.3244 5.5679 1.47 12.495c1.5689 2.8907 4.8142 6.5742 11.827 11.359-0.45373-10.324 3.6548-15.654 3.274-13.029s-2.5252 16.284 2.5173 15.302c3.9855-0.78125 6.4445-2.9622 10.271-2.5795z"/>
    <path transform="translate(-42.229,-3.5455)" d="m102.22 263.98c-2.3938 1.3638-3.0478 3.1714-3.0478 3.1714s3.1885-1.914 6.7797-0.6228c1.8679 0.67159 7.465-4.2522 7.3705-7.9375-0.11142-4.3453-2.1734-8.221-2.1734-8.221 2.1921 12.286-4.859 11.291-8.9291 13.61z"/>
    <path transform="translate(-42.229,-3.5455)" d="m112.37 249c2.9065 1.9765 11.262 7.7016 9.5439 15.733-1.7182 8.0317-8.3692 14.541-10.583 25.041-5.8905-1.0941-15.298-10.291-15.308-14.269-0.0096-3.9779 2.3624-5.5752 2.3624-5.5752s-0.83 3.5906 0.31492 6.3835c1.8064 4.0213 9.4652 9.208 9.4652 9.208-2.9551-9.392-1.1659-15.952 4.0795-20.509 5.2453-4.5568 1.9168-13.576 0.12553-16.013z"/>
    <path transform="translate(-42.229,-3.5455)" d="m104.31 251.69s1.2702 0.30792 2.1942-0.046c0.50632-0.19392 0.90873-0.58655 0.94137-1.3374 0.0922-2.1211-3.5506-1.1067-3.1356 1.3834z"/>
    <path transform="translate(-42.229,-3.5455)" d="m86.113 235.18c-1.548 0.17894-2.5254 0.64844-2.5254 0.64844l-0.2793 0.13672-0.01953 0.31054c-0.07106 1.2081 0.60789 2.7329 1.2559 4.0781 1.4436 2.7325 1.9637 1.0442 0.95898-0.46289-0.56416-1.1713-0.97439-2.457-1.0391-3.2129 0.54917-0.23961 3.3533-1.3715 7.1133 0.54687 0.63284 0.323 1.1172-0.62622 0.48438-0.94922-2.2822-1.1644-4.4012-1.2746-5.9492-1.0957z" color="#000000" color-rendering="auto" dominant-baseline="auto" image-rendering="auto" shape-rendering="auto" solid-color="#000000" style="font-feature-settings:normal;font-variant-alternates:normal;font-variant-caps:normal;font-variant-ligatures:normal;font-variant-numeric:normal;font-variant-position:normal;isolation:auto;mix-blend-mode:normal;shape-padding:0;text-decoration-color:#000000;text-decoration-line:none;text-decoration-style:solid;text-indent:0;text-orientation:mixed;text-transform:none;white-space:normal"/>
    <path transform="translate(-42.229,-3.5455)" d="m91.224 237.03c1.8782 1.1052 2.536 3.7814 2.2846 5.541 0 0 0.91662-0.0705 1.4822 0.62081 0 0 1.4435-0.54588 1.9297-1.3458-0.4399-0.97407-3.4134-4.8226-4.7649-5.5235-0.7233-0.37512-2.8099-0.39777-0.93168 0.70742z"/>
    <path d="m22.688 226.72a0.50005 0.50005 0 0 0-0.42383 0.74804s0.84187 1.5204 1.9883 3.25c1.1464 1.7296 2.5582 3.6646 3.9043 4.5918l0.66797 0.46094 0.11133-0.80469c0.26528-1.9295-0.33067-3.5046-0.75781-4.6055-0.21357-0.55045-0.37541-0.99693-0.39844-1.2285-0.01151-0.1158 0.0056-0.15892 0.01367-0.17383 0.0081-0.0149 0.01803-0.0397 0.12891-0.0859 0.07489-0.0312 0.05712-0.0326 0.14453 0.0215s0.23723 0.20587 0.39062 0.43946c0.3068 0.46717 0.63669 1.2276 0.97852 2.0156 0.34183 0.78805 0.69787 1.6055 1.1387 2.25 0.2204 0.32224 0.46249 0.60693 0.76562 0.81446 0.30314 0.20752 0.68932 0.32831 1.084 0.26953 0.62627-0.0933 1.018-0.61896 1.2109-1.1543 0.19297-0.53534 0.25674-1.1488 0.27539-1.7461 0.03731-1.1946-0.13281-2.332-0.13281-2.332a0.50005 0.50005 0 1 0-0.98828 0.14453s0.1548 1.0769 0.12109 2.1562c-0.01685 0.53969-0.08645 1.0778-0.2168 1.4394-0.13034 0.36161-0.25114 0.4774-0.41602 0.50195-0.12747 0.019-0.22426-4e-3 -0.37305-0.10547-0.14879-0.10186-0.32794-0.2926-0.50586-0.55273-0.35583-0.52025-0.70501-1.3004-1.0449-2.084-0.33992-0.78364-0.66775-1.5679-1.0605-2.166-0.1964-0.29907-0.40748-0.55955-0.69922-0.74023-0.29174-0.18069-0.70643-0.23973-1.0566-0.0937-0.26083 0.10871-0.49373 0.28882-0.625 0.53125-0.13127 0.24242-0.15094 0.50879-0.12695 0.75 0.04797 0.4824 0.24925 0.9466 0.46094 1.4922 0.31342 0.8078 0.57257 1.8157 0.64453 2.9297-0.92478-0.92012-1.9428-2.1879-2.8047-3.4883-1.122-1.6928-1.9473-3.1816-1.9473-3.1816a0.50005 0.50005 0 0 0-0.45117-0.26378z" color="#000000" color-rendering="auto" dominant-baseline="auto" image-rendering="auto" shape-rendering="auto" solid-color="#000000" style="font-feature-settings:normal;font-variant-alternates:normal;font-variant-caps:normal;font-variant-ligatures:normal;font-variant-numeric:normal;font-variant-position:normal;isolation:auto;mix-blend-mode:normal;shape-padding:0;text-decoration-color:#000000;text-decoration-line:none;text-decoration-style:solid;text-indent:0;text-orientation:mixed;text-transform:none;white-space:normal"/>
   </g>
   <path d="m-207.8 127.58s-0.75595-1.7009 0.0945-3.3073c0.85044-1.6064-1.0394-3.6853 0.18899-6.3311 1.2284-2.6458 3.4103-5.831 5.6696-7.7485 1.1513-0.97711-0.29492-2.3466-0.56696-3.3073-0.24737-0.87354 0.0945-3.2128 1.1339-4.2522s2.9708-1.0977 6.0476-3.4018 8.6838 2.4259 12.824-1.0496c1.4741-3.2089-1.679-7.0703-2.8078-8.4943-1.7278-2.1797-7.3654-8.3503-5.9951-9.6446 1.8586-1.7555 8.8693 10.077 9.8159 9.3893s-1.9443-11.739 0.0227-12.092 1.2874 10.208 3.1383 10.407 3.2377-8.1599 4.1047-8.0131c1.8571 0.75037-2.9996 14.92-0.38167 14.111l2.6179-0.80889c3.8807-1.1991 5.233-17.379 7.0655-17.472 1.9606-0.0997-1.0584 9.5925-1.4798 13.935 2.6545-1.0392 5.3987-2.5869 6.6977-3.9765s3.6727-10.826 5.4824-10.482c1.5532 0.29552-2.5978 8.8006 0.0741 7.4837 2.6718-1.3169 5.4596-1.7547 5.6236-7.7177s4.0365 1.6994-0.46601 8.7543c-4.5025 7.0549-19.611 13.01-33.769 19.544-3.9779 1.772-6.1586-0.48165-8.8757 1.7076-2.7171 2.1892-3.3246 7.6582-3.4085 13.128 0 0-0.28348-1.5119-2.7403-2.4568-10.035-1.9914-7.9407 12.262-3.3073 11.339 4.6334-0.92223-1.7513-6.1144 2.7403-5.2917 1.2024 4.3466-0.13652 7.559-4.4412 7.5595-3.4381-0.76741-3.7129 0.11071-5.1027-1.5119z"/>
  </g>
 </g>
</svg>
